<svg xmlns="http://www.w3.org/2000/svg" viewBox="0 0 796 766"><path d="M384.5 29.604c-3.3.2-8.8.631-12.223.957l-6.223.592 1.629 2.486c1.865 2.846-.262 9.361-3.056 9.361-1.287 0-3.676 23.414-2.491 24.412.2.169 3.064-.054 6.364-.495 35.832-4.789 79.223-.77 123.648 11.451 60.176 16.554 126.999 63.54 162.588 114.322 36.647 52.292 54.753 101.447 60.252 163.573 2.37 26.769-.224 69.562-5.499 90.737-.753 3.025-1.902 7.75-2.552 10.5-2.767 11.703-9.154 31.691-13.422 42-5.914 14.287-17.71 37.876-22.652 45.3-1.575 2.365-2.863 4.475-2.863 4.689 0 .214-3.701 5.704-8.225 12.2C583.07 671.84 449.013 721.345 318.856 687.585c-75.518-19.587-144.363-70.442-185.256-136.846-10.989-17.844-22.793-41.88-21.3-43.372.837-.838 11.532 5.991 21.785 13.909 2.008 1.551 5.911 3.731 18.415 10.285 55.727 29.209 127.312 26.941 181.648-5.755 5.306-3.194 9.978-5.806 10.383-5.806.404 0 1.462-.811 2.352-1.801.889-.991 3.417-3.117 5.617-4.723 2.2-1.607 5.125-3.997 6.499-5.312 1.375-1.314 4.209-3.801 6.297-5.527 3.881-3.205 19.714-20.686 22.604-24.955.88-1.301 4.457-6.599 7.949-11.773 35.552-52.682 39.851-125.685 10.811-183.59-47.617-94.946-161.567-132.322-256.821-84.238-6.568 3.316-8.006 3.237-5.481-.3a449.542 449.542 0 0 0 3.354-4.781c1.602-2.322 13.162-16.879 14.293-18 .277-.275 4.102-4.505 8.5-9.399 13.209-14.702 36.571-34.569 55.289-47.018 23.516-15.639 36.864-22.355 70.706-35.576 14.492-5.661 53.085-14.872 57.488-13.72 1.407.368 1.796-1.355 2.797-12.406l1.163-12.834-2.565-2.768c-1.969-2.125-2.448-3.488-2.062-5.868.578-3.562 2.222-3.53-15.821-.31-27.564 4.918-51.907 12.453-79 24.454-98.915 43.812-172.883 131.346-199.429 236.004-13.348 52.628-14.258 109.085-2.623 162.768 15.837 73.068 61.166 147.61 118.176 194.334 16.6 13.605 15.278 12.625 32.376 24.015 5.225 3.481 9.96 6.665 10.522 7.076 2.342 1.712 15.888 8.835 28.978 15.236 52.81 25.824 105.191 36.684 169.5 35.14 22.851-.549 56.628-6.192 80.5-13.45 2.75-.836 8.134-2.451 11.965-3.59 3.83-1.138 8.888-2.974 11.239-4.079 2.351-1.105 4.581-2.009 4.957-2.009 2.456 0 35.12-15.13 43.845-20.309 1.103-.655 5.153-2.95 9-5.101 33.129-18.52 70.294-50.681 96.598-83.59 110.465-138.21 101.789-338.208-20.151-464.5C601.259 82.925 537.392 48.61 463 34.904c-22.016-4.056-58.476-6.518-78.5-5.3M224 213.563c-22.697 2.513-45.759 9.765-60.119 18.906-.891.567-3.141 1.888-5 2.935-3.772 2.124-13.336 9.041-16.32 11.802-1.066.987-2.222 1.794-2.569 1.794-1.022 0-17.501 17.061-21.733 22.5-3.943 5.069-16.259 24.224-16.259 25.288 0 .319-.941 2.635-2.09 5.146-18.286 39.947-18.391 85.171-.289 125.143 35.768 78.982 130.006 112.151 207.879 73.168 20.258-10.142 40.526-26.571 51.265-41.558l3.265-4.556-3.265 1.05c-16.926 5.442-42.376 5.497-59.265.127-59.321-18.862-79.129-92.069-37.297-137.839 28.06-30.703 77.213-35.949 111.049-11.853 7.022 5 7.936 4.606 5.203-2.244-19.287-48.344-72.627-86.221-126.555-89.868-4.62-.313-10.2-.714-12.4-.892-2.2-.177-9.175.25-15.5.951m89.324 114.413c-17.226 3.689-28.892 12.829-33.856 26.524-.997 2.75-2.259 5.585-2.805 6.301-.546.715-1.159 5.705-1.362 11.088-1.925 50.893 62.041 71.883 90.986 29.856 9.564-13.886 11.18-31.92 4.224-47.127-2.553-5.582-8.358-12.618-10.41-12.618-.532 0-1.254-.908-1.606-2.017-.352-1.109-2.377-2.903-4.5-3.985-2.123-1.083-4.141-2.426-4.486-2.984-.345-.558-1.518-1.014-2.608-1.014-1.089 0-3.784-.92-5.989-2.045-4.606-2.35-20.523-3.492-27.588-1.979" fill-rule="evenodd"/></svg>