<svg xmlns="http://www.w3.org/2000/svg"  viewBox="0 0 50 50" width="50px" height="50px"><path d="M 24.984375 2.9863281 A 1.0001 1.0001 0 0 0 24.679688 3.0390625 C 22.983771 3.0641115 21.316801 3.2459951 19.738281 3.640625 C 19.053641 3.8073252 18.376968 4.0179675 17.705078 4.2636719 A 1.0001 1.0001 0 0 0 17.255859 4.4296875 C 16.396914 4.7437702 15.563298 5.1075869 14.771484 5.5273438 C 13.471714 6.2024123 12.254313 7.0406441 11.115234 7.9726562 A 1.0001 1.0001 0 0 0 10.722656 8.2597656 C 10.616239 8.3487468 10.509834 8.4375382 10.40625 8.5332031 C 9.0875863 9.7053486 7.9044938 11.033865 6.8886719 12.5 C 6.5897495 12.929785 6.3158765 13.377469 6.0527344 13.828125 A 1.0001 1.0001 0 0 0 5.8320312 14.242188 C 4.6772624 16.285274 3.8440235 18.53702 3.4042969 20.916016 A 1.0001 1.0001 0 0 0 3.3066406 21.367188 C 3.2484466 21.691987 3.1926603 22.019336 3.15625 22.365234 C 3.0526302 23.230492 3 24.10652 3 25 C 3 25.89348 3.05263 26.769508 3.15625 27.634766 C 3.19266 27.980664 3.248447 28.308014 3.3066406 28.632812 A 1.0001 1.0001 0 0 0 3.4042969 29.082031 C 3.8436085 31.459968 4.6743714 33.711471 5.828125 35.753906 A 1.0001 1.0001 0 0 0 6.0527344 36.171875 C 6.3161537 36.623006 6.5893959 37.071744 6.8886719 37.501953 C 7.9055745 38.969433 9.0888731 40.28689 10.402344 41.464844 C 10.505599 41.560304 10.612714 41.647554 10.71875 41.736328 C 10.71875 41.736328 10.720703 41.738281 10.720703 41.738281 A 1.0001 1.0001 0 0 0 11.117188 42.029297 C 11.117188 42.029297 11.119141 42.029297 11.119141 42.029297 C 12.257287 42.960153 13.472994 43.798253 14.771484 44.472656 C 15.563298 44.892413 16.396914 45.25623 17.255859 45.570312 A 1.0001 1.0001 0 0 0 17.703125 45.736328 C 18.375592 45.982339 19.05304 46.192528 19.738281 46.359375 C 21.316801 46.754005 22.983772 46.935888 24.679688 46.960938 A 1.0001 1.0001 0 0 0 25.320312 46.960938 C 27.016229 46.935887 28.683199 46.754005 30.261719 46.359375 C 30.946359 46.192675 31.623032 45.982033 32.294922 45.736328 A 1.0001 1.0001 0 0 0 32.744141 45.570312 C 33.603086 45.256231 34.436702 44.892413 35.228516 44.472656 C 36.528286 43.797588 37.745687 42.959356 38.884766 42.027344 A 1.0001 1.0001 0 0 0 39.277344 41.740234 C 39.384839 41.650354 39.493037 41.561565 39.597656 41.464844 C 40.911127 40.28689 42.094426 38.969433 43.111328 37.501953 L 43.111328 37.5 C 43.41025 37.070215 43.684124 36.622531 43.947266 36.171875 A 1.0001 1.0001 0 0 0 44.167969 35.757812 C 45.322738 33.714726 46.155976 31.46298 46.595703 29.083984 A 1.0001 1.0001 0 0 0 46.693359 28.632812 C 46.751456 28.308013 46.80734 27.980664 46.84375 27.634766 C 46.94737 26.769508 47 25.89348 47 25 C 47 24.10652 46.94737 23.230492 46.84375 22.365234 C 46.80734 22.019336 46.75155 21.691986 46.693359 21.367188 A 1.0001 1.0001 0 0 0 46.595703 20.917969 C 46.156391 18.540032 45.325629 16.288529 44.171875 14.246094 A 1.0001 1.0001 0 0 0 43.947266 13.828125 C 43.684124 13.377469 43.41025 12.929785 43.111328 12.5 L 43.111328 12.498047 C 42.095694 11.032438 40.91205 9.7050255 39.59375 8.5332031 C 39.491531 8.4387983 39.386209 8.3515441 39.28125 8.2636719 A 1.0001 1.0001 0 0 0 39.279297 8.2617188 A 1.0001 1.0001 0 0 0 38.882812 7.9707031 A 1.0001 1.0001 0 0 0 38.880859 7.9707031 C 37.742807 7.0398438 36.527006 6.2017473 35.228516 5.5273438 C 34.436702 5.1075869 33.603086 4.7437702 32.744141 4.4296875 A 1.0001 1.0001 0 0 0 32.296875 4.2636719 C 31.624408 4.0176609 30.94696 3.8074716 30.261719 3.640625 C 28.683199 3.2459951 27.016228 3.0641111 25.320312 3.0390625 A 1.0001 1.0001 0 0 0 24.984375 2.9863281 z M 17.490234 4.3261719 C 17.483334 4.3285919 17.477643 4.3335075 17.470703 4.3359375 C 17.467603 4.3371375 17.464137 4.3366894 17.460938 4.3378906 L 17.490234 4.3261719 z M 32.509766 4.3261719 L 32.539062 4.3378906 C 32.535962 4.3366906 32.532497 4.3371364 32.529297 4.3359375 C 32.522397 4.3335075 32.516716 4.3286019 32.509766 4.3261719 z M 24 5.1210938 L 24 9.1191406 C 23.040776 9.1798176 22.079138 9.2385611 21.173828 9.4589844 A 1.0001 1.0001 0 0 0 21.171875 9.4589844 C 20.940658 9.5156974 20.715138 9.6013534 20.486328 9.6679688 L 19.119141 5.9160156 C 19.48337 5.803967 19.833655 5.6752279 20.216797 5.5820312 A 1.0001 1.0001 0 0 0 20.222656 5.5800781 C 21.423791 5.2797811 22.711026 5.1866866 24 5.1210938 z M 26 5.1210938 C 27.288974 5.1866867 28.576168 5.2797842 29.777344 5.5800781 A 1.0001 1.0001 0 0 0 29.783203 5.5820312 C 30.166345 5.6752282 30.51663 5.803967 30.880859 5.9160156 L 29.513672 9.6679688 C 29.284862 9.6013537 29.059342 9.5156979 28.828125 9.4589844 A 1.0001 1.0001 0 0 0 28.826172 9.4589844 C 27.920868 9.2385642 26.959224 9.1798172 26 9.1191406 L 26 5.1210938 z M 17.246094 6.6132812 L 18.611328 10.369141 C 18.26113 10.522105 17.904345 10.652049 17.564453 10.835938 C 17.564453 10.835938 17.5625 10.837891 17.5625 10.837891 C 17.02601 11.120357 16.547382 11.514286 16.041016 11.857422 A 1.0001 1.0001 0 0 0 15.494141 12.113281 L 12.978516 9.1171875 C 13.851301 8.4564955 14.732923 7.7991998 15.701172 7.296875 A 1.0001 1.0001 0 0 0 15.708984 7.2929688 C 16.209009 7.0278953 16.730137 6.8303491 17.246094 6.6132812 z M 32.753906 6.6132812 C 33.269863 6.830349 33.790991 7.0278954 34.291016 7.2929688 A 1.0001 1.0001 0 0 0 34.298828 7.296875 C 35.267077 7.7991998 36.148699 8.4564955 37.021484 9.1171875 L 34.505859 12.113281 A 1.0001 1.0001 0 0 0 33.958984 11.859375 C 33.452339 11.515997 32.974308 11.120525 32.4375 10.837891 C 32.096873 10.653514 31.739658 10.522449 31.388672 10.369141 L 32.753906 6.6132812 z M 11.425781 10.376953 L 14.005859 13.451172 C 13.213751 14.206448 12.453788 15.002521 11.826172 15.912109 C 11.770912 15.991479 11.728712 16.07438 11.675781 16.154297 L 8.2089844 14.152344 C 8.3179021 13.98313 8.4175791 13.804027 8.53125 13.640625 A 1.0001 1.0001 0 0 0 8.53125 13.638672 C 9.3661495 12.433662 10.362461 11.366367 11.425781 10.376953 z M 38.574219 10.376953 C 39.637539 11.366367 40.63385 12.433662 41.46875 13.638672 A 1.0001 1.0001 0 0 0 41.46875 13.640625 C 41.582421 13.804027 41.682098 13.98313 41.791016 14.152344 L 38.324219 16.154297 C 38.271289 16.074377 38.229089 15.991479 38.173828 15.912109 L 38.169922 15.908203 C 37.543045 15.000326 36.78492 14.205182 35.994141 13.451172 L 38.574219 10.376953 z M 24 11.119141 L 24 15.050781 C 22.540587 15.196737 21.176491 15.665492 19.96875 16.373047 L 17.644531 13.175781 C 17.936241 12.995433 18.190142 12.766496 18.496094 12.605469 A 1.0001 1.0001 0 0 0 18.505859 12.599609 C 19.013468 12.324296 19.55804 12.092052 20.113281 11.884766 A 1.0001 1.0001 0 0 0 20.332031 11.800781 C 20.752629 11.646428 21.185005 11.514063 21.648438 11.400391 L 21.646484 11.402344 C 22.400516 11.218767 23.20328 11.176592 24 11.119141 z M 26 11.119141 C 26.79672 11.176591 27.599463 11.218751 28.353516 11.402344 L 28.351562 11.400391 C 28.815624 11.514217 29.248796 11.646145 29.669922 11.800781 A 1.0001 1.0001 0 0 0 29.892578 11.886719 C 30.44577 12.0935 30.988306 12.325258 31.494141 12.599609 A 1.0001 1.0001 0 0 0 31.503906 12.605469 C 31.809858 12.766496 32.063759 12.995433 32.355469 13.175781 L 30.03125 16.373047 C 28.823509 15.665492 27.459413 15.196737 26 15.050781 L 26 11.119141 z M 15.992188 14.302734 L 18.353516 17.552734 C 17.294172 18.499396 16.433013 19.662444 15.851562 20.978516 L 12.052734 19.740234 C 12.278118 19.170464 12.525881 18.616369 12.828125 18.097656 A 1.0001 1.0001 0 0 0 12.943359 17.892578 C 13.112664 17.60152 13.28456 17.319809 13.470703 17.052734 A 1.0001 1.0001 0 0 0 13.472656 17.048828 C 14.115948 16.116521 14.873606 15.265345 15.714844 14.517578 A 1.0001 1.0001 0 0 0 15.71875 14.513672 C 15.78048 14.458112 15.81573 14.428972 15.859375 14.392578 A 1.0001 1.0001 0 0 0 15.863281 14.390625 A 1.0001 1.0001 0 0 0 15.992188 14.302734 z M 34.007812 14.302734 A 1.0001 1.0001 0 0 0 34.132812 14.386719 C 34.177822 14.423959 34.216272 14.455199 34.28125 14.513672 A 1.0001 1.0001 0 0 0 34.285156 14.517578 C 35.126394 15.265345 35.884052 16.116521 36.527344 17.048828 A 1.0001 1.0001 0 0 0 36.529297 17.052734 C 36.715751 17.320255 36.887071 17.602945 37.056641 17.894531 A 1.0001 1.0001 0 0 0 37.173828 18.103516 A 1.0001 1.0001 0 0 0 37.175781 18.105469 C 37.474292 18.618598 37.722333 19.170441 37.953125 19.738281 L 34.148438 20.978516 C 33.566987 19.662444 32.705828 18.499396 31.646484 17.552734 L 34.007812 14.302734 z M 7.25 15.90625 L 10.716797 17.90625 C 10.485598 18.372702 10.229205 18.82865 10.048828 19.316406 C 10.048828 19.316406 10.048828 19.318359 10.048828 19.318359 C 9.9964621 19.452399 9.978533 19.602549 9.9296875 19.738281 A 1.0001 1.0001 0 0 0 9.7246094 20.476562 C 9.6469554 20.731362 9.5719699 20.987174 9.5078125 21.248047 L 5.5625 20.552734 C 5.9310811 18.918456 6.4993835 17.362339 7.25 15.90625 z M 42.75 15.90625 C 43.500617 17.362339 44.068919 18.918456 44.4375 20.552734 L 40.496094 21.248047 C 40.431914 20.981812 40.355791 20.719836 40.277344 20.458984 A 1.0001 1.0001 0 0 0 40.082031 19.753906 C 40.031501 19.611886 40.015821 19.456852 39.960938 19.316406 C 39.775273 18.830534 39.519617 18.371563 39.287109 17.904297 L 42.75 15.90625 z M 24.882812 17.005859 A 1.0001 1.0001 0 0 0 25.125 17.005859 C 26.75109 17.030818 28.257794 17.533145 29.507812 18.384766 A 1.0001 1.0001 0 0 0 29.873047 18.658203 C 31.080102 19.58582 32.009141 20.848872 32.529297 22.3125 A 1.0001 1.0001 0 0 0 32.677734 22.759766 C 32.883855 23.470977 33 24.220824 33 25 C 33 25.777855 32.883181 26.526183 32.677734 27.236328 A 1.0001 1.0001 0 0 0 32.529297 27.6875 C 32.009765 29.149374 31.081907 30.410578 29.876953 31.337891 A 1.0001 1.0001 0 0 0 29.507812 31.615234 C 28.25578 32.468228 26.746286 32.970696 25.117188 32.994141 A 1.0001 1.0001 0 0 0 24.875 32.994141 C 21.445275 32.941499 18.558719 30.748988 17.470703 27.6875 A 1.0001 1.0001 0 0 0 17.322266 27.240234 C 17.116145 26.529023 17 25.779176 17 25 C 17 24.222145 17.116819 23.473817 17.322266 22.763672 A 1.0001 1.0001 0 0 0 17.470703 22.3125 C 18.55955 19.248673 21.44965 17.055268 24.882812 17.005859 z M 38.542969 21.648438 C 38.610779 21.923271 38.719202 22.1819 38.769531 22.464844 A 1.0001 1.0001 0 0 0 38.8125 22.693359 C 38.84358 22.903124 38.875004 23.107444 38.896484 23.300781 A 1.0001 1.0001 0 0 0 38.896484 23.308594 C 38.96216 23.862751 39 24.433716 39 25 C 39 25.566284 38.96223 26.137227 38.896484 26.691406 A 1.0001 1.0001 0 0 0 38.896484 26.699219 C 38.874864 26.893776 38.8438 27.099284 38.8125 27.310547 A 1.0001 1.0001 0 0 0 38.769531 27.533203 C 38.719131 27.816795 38.610932 28.07612 38.542969 28.351562 L 34.767578 27.123047 C 34.916644 26.437855 35 25.728981 35 25 C 35 24.271019 34.916644 23.562145 34.767578 22.876953 L 38.542969 21.648438 z M 11.460938 21.650391 L 15.232422 22.876953 C 15.083356 23.562145 15 24.271019 15 25 C 15 25.728981 15.083356 26.437855 15.232422 27.123047 L 11.460938 28.349609 C 11.391887 28.075243 11.280621 27.814201 11.230469 27.533203 A 1.0001 1.0001 0 0 0 11.1875 27.306641 C 11.15643 27.096876 11.124996 26.892556 11.103516 26.699219 A 1.0001 1.0001 0 0 0 11.103516 26.691406 C 11.037762 26.137214 11 25.566284 11 25 C 11 24.433716 11.03777 23.862773 11.103516 23.308594 A 1.0001 1.0001 0 0 0 11.103516 23.300781 C 11.125136 23.106224 11.1562 22.900716 11.1875 22.689453 A 1.0001 1.0001 0 0 0 11.230469 22.46875 C 11.280689 22.187114 11.391733 21.925365 11.460938 21.650391 z M 5.1542969 22.511719 L 9.109375 23.208984 C 9.0445971 23.79331 9 24.392637 9 25 C 9 25.607363 9.044597 26.20669 9.109375 26.791016 L 5.1542969 27.488281 C 5.1519869 27.467601 5.1467112 27.446461 5.1445312 27.425781 A 1.0001 1.0001 0 0 0 5.1425781 27.410156 C 5.0474286 26.62041 5 25.82124 5 25 C 5 24.17876 5.0474274 23.379595 5.1425781 22.589844 A 1.0001 1.0001 0 0 0 5.1445312 22.574219 C 5.1467113 22.553539 5.1519769 22.532399 5.1542969 22.511719 z M 44.845703 22.511719 C 44.848003 22.532399 44.853269 22.553539 44.855469 22.574219 A 1.0001 1.0001 0 0 0 44.857422 22.589844 C 44.952492 23.37959 45 24.17876 45 25 C 45 25.82124 44.95257 26.620405 44.857422 27.410156 A 1.0001 1.0001 0 0 0 44.855469 27.425781 C 44.853269 27.446461 44.848003 27.467601 44.845703 27.488281 L 40.890625 26.791016 C 40.955403 26.20669 41 25.607363 41 25 C 41 24.392637 40.9554 23.79331 40.890625 23.208984 L 44.845703 22.511719 z M 9.5078125 28.751953 C 9.5721205 29.013438 9.6467429 29.270007 9.7246094 29.525391 A 1.0001 1.0001 0 0 0 9.9296875 30.261719 C 9.9785325 30.397451 9.9964626 30.547601 10.048828 30.681641 C 10.048828 30.681641 10.048828 30.683594 10.048828 30.683594 C 10.229205 31.17135 10.485598 31.627298 10.716797 32.09375 L 7.25 34.09375 C 6.4993835 32.637614 5.9310811 31.081544 5.5625 29.447266 L 9.5078125 28.751953 z M 40.496094 28.751953 L 44.4375 29.447266 C 44.068919 31.081544 43.500617 32.637661 42.75 34.09375 L 39.287109 32.095703 C 39.519617 31.628437 39.775274 31.169466 39.960938 30.683594 C 40.016047 30.542566 40.031308 30.386756 40.082031 30.244141 A 1.0001 1.0001 0 0 0 40.277344 29.537109 C 40.355364 29.277433 40.432208 29.016964 40.496094 28.751953 z M 15.851562 29.021484 C 16.433013 30.337556 17.294172 31.500604 18.353516 32.447266 L 15.992188 35.697266 A 1.0001 1.0001 0 0 0 15.867188 35.613281 C 15.822178 35.576041 15.783728 35.544811 15.71875 35.486328 A 1.0001 1.0001 0 0 0 15.714844 35.482422 C 14.873606 34.734655 14.115948 33.883479 13.472656 32.951172 A 1.0001 1.0001 0 0 0 13.470703 32.947266 C 13.284249 32.679745 13.112929 32.397055 12.943359 32.105469 A 1.0001 1.0001 0 0 0 12.826172 31.896484 A 1.0001 1.0001 0 0 0 12.826172 31.894531 C 12.525593 31.377837 12.277138 30.827058 12.052734 30.259766 L 15.851562 29.021484 z M 34.148438 29.021484 L 37.953125 30.261719 C 37.721443 30.831747 37.471831 31.385508 37.171875 31.900391 A 1.0001 1.0001 0 0 0 37.056641 32.107422 C 36.887336 32.39848 36.71544 32.680191 36.529297 32.947266 A 1.0001 1.0001 0 0 0 36.527344 32.951172 C 35.884052 33.883479 35.126394 34.734655 34.285156 35.482422 A 1.0001 1.0001 0 0 0 34.28125 35.486328 C 34.21952 35.541888 34.18427 35.571028 34.140625 35.607422 C 34.139628 35.608253 34.137719 35.608475 34.136719 35.609375 A 1.0001 1.0001 0 0 0 34.007812 35.697266 L 31.646484 32.447266 C 32.705828 31.500604 33.566987 30.337556 34.148438 29.021484 z M 19.96875 33.626953 C 21.176491 34.334508 22.540587 34.803263 24 34.949219 L 24 38.880859 C 23.20328 38.823409 22.400537 38.781249 21.646484 38.597656 L 21.648438 38.599609 C 21.184376 38.485783 20.751204 38.353855 20.330078 38.199219 A 1.0001 1.0001 0 0 0 20.107422 38.113281 C 19.554184 37.906455 19.011694 37.674742 18.505859 37.400391 A 1.0001 1.0001 0 0 0 18.496094 37.394531 C 18.190142 37.233504 17.936241 37.004567 17.644531 36.824219 L 19.96875 33.626953 z M 30.03125 33.626953 L 32.355469 36.824219 C 32.063759 37.004567 31.809858 37.233504 31.503906 37.394531 A 1.0001 1.0001 0 0 0 31.494141 37.400391 C 30.986532 37.675704 30.44196 37.907948 29.886719 38.115234 A 1.0001 1.0001 0 0 0 29.667969 38.199219 C 29.247371 38.353572 28.814994 38.485937 28.351562 38.599609 L 28.353516 38.597656 C 27.599484 38.781243 26.79672 38.823408 26 38.880859 L 26 34.949219 C 27.459413 34.803263 28.823509 34.334508 30.03125 33.626953 z M 11.675781 33.845703 C 11.729711 33.927133 11.773721 34.010939 11.830078 34.091797 C 12.456949 34.999621 13.21508 35.794818 14.005859 36.548828 L 11.425781 39.623047 C 10.360027 38.625531 9.3643031 37.563673 8.53125 36.361328 A 1.0001 1.0001 0 0 0 8.53125 36.359375 C 8.4175791 36.19602 8.3179021 36.01687 8.2089844 35.847656 L 11.675781 33.845703 z M 38.324219 33.845703 L 41.791016 35.847656 C 41.682098 36.01687 41.582421 36.195973 41.46875 36.359375 A 1.0001 1.0001 0 0 0 41.46875 36.361328 C 40.635697 37.563673 39.639973 38.625531 38.574219 39.623047 L 35.994141 36.548828 C 36.78492 35.794818 37.543051 34.999621 38.169922 34.091797 L 38.173828 34.087891 C 38.229088 34.008521 38.271288 33.92562 38.324219 33.845703 z M 15.494141 37.886719 A 1.0001 1.0001 0 0 0 16.041016 38.142578 C 16.547382 38.485714 17.02601 38.879643 17.5625 39.162109 C 17.5625 39.162109 17.564453 39.164062 17.564453 39.164062 C 17.904345 39.347952 18.26113 39.477895 18.611328 39.630859 L 17.246094 43.386719 C 16.730137 43.169651 16.209009 42.972105 15.708984 42.707031 A 1.0001 1.0001 0 0 0 15.701172 42.703125 C 14.732864 42.200747 13.851301 41.543504 12.978516 40.882812 L 15.494141 37.886719 z M 34.505859 37.888672 L 37.021484 40.882812 C 36.148699 41.543504 35.267077 42.2008 34.298828 42.703125 A 1.0001 1.0001 0 0 0 34.291016 42.707031 C 33.790991 42.972105 33.269863 43.169651 32.753906 43.386719 L 31.388672 39.630859 C 31.73887 39.477895 32.095655 39.347952 32.435547 39.164062 L 32.4375 39.162109 C 32.97399 38.879643 33.452618 38.485714 33.958984 38.142578 A 1.0001 1.0001 0 0 0 34.505859 37.888672 z M 20.486328 40.332031 C 20.715138 40.398651 20.940658 40.484302 21.171875 40.541016 A 1.0001 1.0001 0 0 0 21.173828 40.541016 C 22.079138 40.761439 23.040776 40.820183 24 40.880859 L 24 44.878906 C 22.711026 44.813316 21.423832 44.720216 20.222656 44.419922 A 1.0001 1.0001 0 0 0 20.216797 44.417969 C 19.833655 44.324769 19.48337 44.196033 19.119141 44.083984 L 20.486328 40.332031 z M 29.513672 40.332031 L 30.880859 44.083984 C 30.51663 44.196033 30.166345 44.324772 29.783203 44.417969 A 1.0001 1.0001 0 0 0 29.777344 44.419922 C 28.576209 44.720122 27.288974 44.813313 26 44.878906 L 26 40.880859 C 26.959224 40.820179 27.920862 40.761439 28.826172 40.541016 A 1.0001 1.0001 0 0 0 28.828125 40.541016 C 29.059342 40.484306 29.284862 40.398647 29.513672 40.332031 z M 17.460938 45.662109 C 17.464037 45.663309 17.467503 45.662814 17.470703 45.664062 C 17.477603 45.666463 17.483284 45.671328 17.490234 45.673828 L 17.460938 45.662109 z M 32.539062 45.662109 L 32.509766 45.673828 C 32.516766 45.671428 32.522357 45.666562 32.529297 45.664062 C 32.532397 45.662962 32.535963 45.663241 32.539062 45.662109 z"/></svg>